<svg width="272" height="116" viewBox="0 0 272 116" fill="none" xmlns="http://www.w3.org/2000/svg">
<path fill-rule="evenodd" clip-rule="evenodd" d="M33.8589 58V116L38.6556 115.66L43.4523 115.322V58V0.677945L38.6556 0.339526L33.8589 0V58ZM228.5 1.50471C228.203 2.26312 228.093 28.1815 228.254 59.1023L228.548 115.322L233.344 115.66L238.141 116V58.0628V0.126772H233.592C230.991 0.126772 228.81 0.71763 228.5 1.50471ZM24.8299 56.8976V109.259H27.6515H30.473V56.8976V4.53616H27.6515H24.8299V56.8976ZM241.527 59.1023V111.464H244.349H247.17V59.1023V6.74085H244.349H241.527V59.1023ZM18.0581 55.7953C18.0581 95.2957 18.0999 96.031 20.3154 96.031C22.5309 96.031 22.5726 95.2957 22.5726 55.7953C22.5726 16.2949 22.5309 15.5596 20.3154 15.5596C18.0999 15.5596 18.0581 16.2949 18.0581 55.7953ZM15.1812 55.2441C15.1812 76.7675 15.3324 85.573 15.5164 74.8108C15.7015 64.0497 15.7015 46.4397 15.5164 35.6775C15.3324 24.9164 15.1812 33.7208 15.1812 55.2441ZM249.427 60.2047C249.427 99.7051 249.469 100.44 251.685 100.44C253.9 100.44 253.942 99.7051 253.942 60.2047C253.942 20.7043 253.9 19.969 251.685 19.969C249.469 19.969 249.427 20.7043 249.427 60.2047ZM256.708 60.7559C256.708 82.2792 256.859 91.0847 257.043 80.3225C257.228 69.5614 257.228 51.9514 257.043 41.1892C256.859 30.4281 256.708 39.2325 256.708 60.7559ZM196.382 40.3624C196.382 42.878 196.795 43.2186 199.485 42.9155C201.718 42.6652 202.589 41.9476 202.589 40.3624C202.589 38.7773 201.718 38.0596 199.485 37.8094C196.795 37.5063 196.382 37.8469 196.382 40.3624ZM49.4656 47.5674C46.5504 49.2297 45.74 54.8363 47.9431 58.1191C49.46 60.3811 49.5446 61.2166 48.3923 62.5725C47.3449 63.805 47.2953 64.7453 48.2016 66.1618C49.1733 67.6819 48.9826 68.3554 47.2874 69.3894C44.3721 71.1675 44.5685 75.6695 47.6542 77.7794C51.3866 80.3335 61.0623 80.0392 64.6773 77.2624C68.5722 74.2706 69.4311 71.162 67.2596 67.9255C65.8308 65.7936 64.3523 65.2171 59.6368 64.9481C53.5693 64.602 50.188 61.8582 55.8288 61.8582C57.4631 61.8582 60.2994 61.1009 62.1311 60.176C64.9708 58.7419 65.4606 57.8501 65.4606 54.1131C65.4606 50.9538 65.9324 49.7324 67.1535 49.7324C68.0847 49.7324 68.8465 48.9883 68.8465 48.0789C68.8465 46.7483 67.1377 46.432 60.0996 46.4584C55.2882 46.4772 50.504 46.9765 49.4656 47.5674ZM69.9751 47.3458C69.9751 47.8518 71.9299 52.9579 74.3192 58.6923C79.0888 70.1412 79.0177 73.3855 73.9738 74.6212C69.7065 75.6673 70.062 79.4958 74.4264 79.4958C79.9443 79.4958 82.8934 75.5979 88.4869 60.9091C91.3412 53.4153 93.6764 47.0912 93.6764 46.8542C93.6764 46.6183 92.1956 46.4254 90.3841 46.4254C87.3075 46.4254 86.9181 46.9368 84.4205 54.2542L81.749 62.0842L79.1204 54.2542C76.669 46.9512 76.274 46.4254 73.2346 46.4254C71.4412 46.4254 69.9751 46.8398 69.9751 47.3458ZM97.0622 58V69.5746H100.448H103.834V61.9365C103.834 53.8783 105.607 50.3729 109.332 51.0673C110.82 51.3451 111.232 53.1386 111.497 60.4924L111.826 69.5746H115.165H118.506V61.9365C118.506 53.8783 120.279 50.3729 124.004 51.0673C125.492 51.3451 125.904 53.1386 126.17 60.4924L126.498 69.5746H129.838H133.178V59.8244C133.178 51.7783 132.817 49.7555 131.114 48.2497C128.7 46.1156 121.828 45.8268 119.832 47.7757C118.741 48.8417 117.983 48.8417 116.237 47.7757C113.365 46.0252 106.96 46.0406 105.047 47.8033C103.851 48.9056 103.448 48.9056 103.035 47.8033C102.751 47.046 101.29 46.4254 99.7901 46.4254C97.0792 46.4254 97.0622 46.4948 97.0622 58ZM141.161 49.33C139.472 51.4278 138.822 53.8364 138.822 58C138.822 67.5452 145.034 72.3052 152.44 68.4337C154.476 67.3688 154.622 67.7029 154.622 73.3943C154.622 79.4384 154.654 79.4958 158.008 79.4958H161.394V63.4776C161.394 49.6773 161.139 47.3623 159.552 46.7682C158.539 46.3879 156.785 46.6414 155.654 47.3315C154.346 48.1296 153.35 48.1924 152.915 47.5057C152.539 46.9115 150.267 46.4254 147.866 46.4254C144.494 46.4254 142.967 47.0868 141.161 49.33ZM168.166 56.1756C168.166 64.2216 168.527 66.2445 170.23 67.7503C172.66 69.8987 179.487 70.1655 181.625 68.1967C182.821 67.0944 183.224 67.0944 183.637 68.1967C183.922 68.9551 185.382 69.5746 186.882 69.5746C189.593 69.5746 189.61 69.5052 189.61 58V46.4254H186.224H182.838V54.0635C182.838 59.5367 182.336 62.1911 181.065 63.4335C176.578 67.8153 173.809 64.0872 173.809 53.6634C173.809 46.6778 173.711 46.4254 170.988 46.4254C168.191 46.4254 168.166 46.5102 168.166 56.1756ZM196.382 58V69.5746H199.768H203.154V58V46.4254H199.768H196.382V58ZM207.668 48.63C207.668 50.5084 208.421 50.8347 212.747 50.8347C215.54 50.8347 217.826 51.0817 217.826 51.3826C217.826 51.6847 215.54 54.963 212.747 58.6691C209.954 62.3752 207.668 66.3459 207.668 67.4912C207.668 69.3608 208.596 69.5746 216.697 69.5746C224.973 69.5746 225.726 69.3905 225.726 67.3699C225.726 65.4915 224.973 65.1653 220.647 65.1653C217.854 65.1653 215.582 64.7927 215.599 64.3385C215.615 63.8843 217.9 60.5729 220.678 56.9814C228.103 47.3756 227.745 46.4254 216.697 46.4254C208.421 46.4254 207.668 46.6094 207.668 48.63ZM2.77079 52.4387C1.23698 53.9356 0 56.4358 0 58.0342C0 61.8152 5.65557 67.3699 9.50646 67.3699C12.3901 67.3699 12.4149 67.2928 12.4149 58.5512V49.7324H8.97826C6.83273 49.7324 4.49872 50.7499 2.77079 52.4387ZM59.375 52.5687C60.2204 55.8614 58.6922 57.8236 55.7182 57.2636C51.7534 56.5184 52.3448 49.7324 56.3751 49.7324C57.8728 49.7324 58.8942 50.6969 59.375 52.5687ZM259.585 58.5512C259.585 67.2928 259.61 67.3699 262.494 67.3699C266.344 67.3699 272 61.8152 272 58.0342C272 54.0591 267.322 49.7324 263.022 49.7324H259.585V58.5512ZM152.791 52.2524C154.277 53.3139 154.686 54.8792 154.417 58.4784C153.743 67.5088 146.486 67.6389 145.807 58.6327C145.293 51.8246 148.319 49.06 152.791 52.2524ZM61.5104 72.3305C61.5104 74.1791 60.6436 74.5892 56.1494 74.8714C51.4509 75.1657 50.7884 74.9387 50.7884 73.0338C50.7884 70.3772 52.4068 69.6309 57.5602 69.9109C60.6842 70.0806 61.5104 70.5866 61.5104 72.3305Z" fill="black"/>
</svg>
