<svg width="130" height="130" viewBox="0 0 130 130" fill="none" xmlns="http://www.w3.org/2000/svg">
<path d="M8.7334 80.3984H8.75195C8.94724 80.3954 9.14155 80.4222 9.32812 80.4775L9.51172 80.542C9.69218 80.6161 9.86023 80.7173 10.0098 80.8418L10.1533 80.9736L10.1572 80.9785L49.0059 119.845L49.0117 119.85L49.0166 119.854C49.1585 119.99 49.2787 120.146 49.373 120.317L49.458 120.493C49.5347 120.674 49.5838 120.865 49.6025 121.06L49.6113 121.256V121.263C49.6125 121.459 49.5832 121.654 49.5254 121.841L49.458 122.024C49.3555 122.266 49.2057 122.484 49.0166 122.664L49.0107 122.669L49.0059 122.675L42.8896 128.813C42.5552 129.139 42.1223 129.34 41.6621 129.389L41.4639 129.399H41.46C41.1997 129.404 40.9411 129.355 40.7002 129.256C40.5194 129.182 40.3508 129.081 40.2012 128.956L40.0586 128.824L40.0537 128.819L1.18066 89.9531L1.17578 89.9492L1.04395 89.8057C0.961086 89.7061 0.888298 89.5985 0.827148 89.4844L0.744141 89.3076C0.645181 89.0668 0.59649 88.8081 0.600586 88.5479V88.5293C0.59752 88.334 0.624256 88.1397 0.679688 87.9531L0.744141 87.7695C0.818372 87.589 0.919438 87.421 1.04395 87.2715L1.17578 87.1289L1.18066 87.124L7.32715 80.9785L7.33203 80.9736C7.46858 80.8344 7.6254 80.7168 7.79688 80.625L7.97363 80.542C8.21454 80.443 8.47316 80.3943 8.7334 80.3984ZM16.9502 56.4941H16.9609C17.199 56.4919 17.4358 56.5258 17.6631 56.5938L17.8877 56.6729C18.1077 56.7635 18.3125 56.8864 18.4951 57.0371L18.6709 57.1982L18.6729 57.2002L72.8145 111.331C73.2068 111.725 73.4497 112.24 73.5068 112.789L73.5195 113.026C73.5194 113.34 73.458 113.649 73.3379 113.938C73.2474 114.155 73.1252 114.357 72.9756 114.538L72.8164 114.712L72.8145 114.714L66.2383 121.288L66.2305 121.297C66.0683 121.466 65.8807 121.608 65.6758 121.719L65.4658 121.819C65.1778 121.939 64.8684 121.999 64.5566 121.994H64.542C64.3071 121.996 64.0736 121.962 63.8496 121.895L63.6289 121.815C63.4122 121.725 63.2105 121.603 63.0312 121.453L62.8594 121.294L62.8545 121.288L8.71387 67.1572L8.70801 67.1523L8.54883 66.9805C8.39876 66.8012 8.27687 66.5996 8.18652 66.3828C8.06595 66.0935 8.00425 65.7833 8.00684 65.4707V65.4561C8.00197 65.1445 8.06158 64.835 8.18164 64.5469C8.30162 64.259 8.4792 63.9983 8.7041 63.7822L8.70508 63.7832L8.71387 63.7734L15.2646 57.1992L15.2686 57.1943C15.4324 57.0264 15.6205 56.8846 15.8262 56.7734L16.0381 56.6729C16.2549 56.5825 16.4838 56.5255 16.7168 56.5039L16.9502 56.4941ZM82.0938 54.5205L55.2402 81.3682L48.9629 75.0928L75.8164 48.2451L82.0938 54.5205ZM65.4551 7.90527C65.6904 7.90508 65.9241 7.93946 66.1484 8.00781L66.3701 8.08691C66.5877 8.17759 66.7899 8.30056 66.9707 8.4502L67.1436 8.6084L67.1455 8.61035L121.306 62.834V62.835C121.695 63.2382 121.933 63.7614 121.983 64.3154L121.993 64.5547V64.5605C121.995 65.1934 121.748 65.8013 121.308 66.2549L115.446 71.9893L115.437 71.999C115.273 72.1669 115.085 72.3087 114.879 72.4199L114.668 72.5215H114.667C114.378 72.6417 114.068 72.7018 113.755 72.6992H113.74C113.506 72.7029 113.274 72.6706 113.051 72.6035L112.831 72.5254C112.615 72.4354 112.414 72.3128 112.236 72.1621L112.066 72.002L112.059 71.9932L57.8955 17.8672H57.8965C57.5092 17.472 57.2715 16.9571 57.2207 16.4111L57.2109 16.1748V16.1631C57.2079 15.9292 57.24 15.6965 57.3057 15.4727L57.3818 15.252C57.499 14.9627 57.6735 14.6999 57.8936 14.4785L57.8926 14.4775L63.7607 8.61133C64.2109 8.16284 64.8196 7.90963 65.4551 7.90527ZM88.5518 0.599609H88.5596C88.7559 0.598418 88.9509 0.627932 89.1377 0.685547L89.3223 0.75293C89.5628 0.855102 89.7802 1.00572 89.9609 1.19531L89.9707 1.20508L128.819 40.0469L128.824 40.0508C128.964 40.1874 129.081 40.3443 129.173 40.5156L129.256 40.6914C129.355 40.9322 129.403 41.191 129.399 41.4512V41.4707C129.402 41.6657 129.376 41.8596 129.32 42.0459L129.256 42.2295C129.182 42.41 129.08 42.5781 128.956 42.7275L128.824 42.8711L128.819 42.875L122.673 49.0215L122.668 49.0254C122.531 49.1648 122.375 49.2832 122.203 49.375L122.026 49.458C121.786 49.5568 121.527 49.6056 121.267 49.6016H121.247C121.052 49.6046 120.858 49.5777 120.672 49.5225L120.488 49.458C120.308 49.3837 120.139 49.2826 119.989 49.1582L119.847 49.0254L119.842 49.0215L80.9941 10.1553L80.9893 10.1504L80.8574 10.0078C80.7329 9.85829 80.6319 9.69032 80.5576 9.50977C80.4586 9.26891 80.409 9.01027 80.4131 8.75L80.4141 8.74023L80.4131 8.73145C80.409 8.47118 80.4586 8.21253 80.5576 7.97168C80.6318 7.7911 80.7329 7.62318 80.8574 7.47363L80.9893 7.33008L80.9932 7.32715L87.1396 1.20605L87.1504 1.19531C87.2859 1.05314 87.4427 0.932323 87.6143 0.837891L87.79 0.75293C87.9708 0.676177 88.1618 0.627107 88.3564 0.608398L88.5518 0.599609Z" fill="black" stroke="white" stroke-width="1.2"/>
</svg>
