<svg width="312" height="374" viewBox="0 0 312 374" fill="none" xmlns="http://www.w3.org/2000/svg">
<path fill-rule="evenodd" clip-rule="evenodd" d="M141.755 3.4513C138.755 5.3703 134.709 7.3873 132.763 7.9323C130.817 8.4783 126.841 10.9593 123.927 13.4463C121.014 15.9333 116.306 19.5133 113.465 21.4023C107.335 25.4793 91.1313 41.6183 83.2863 51.4613C72.8883 64.5063 67.1273 76.9003 56.7873 108.461C51.1013 125.818 46.6033 137.83 41.8103 148.461C21.9133 192.585 15.8943 206.899 10.4843 222.961C3.70826 243.079 3.30826 246.204 3.25126 279.461C3.20926 304.232 2.90727 310.594 1.51527 315.961C-1.76473 328.615 0.0232649 334.628 9.41226 342.518C12.6473 345.237 16.8703 348.917 18.7973 350.697C23.5803 355.115 32.3293 359.641 39.4143 361.363C45.3813 362.814 106.009 364.6 140.801 364.35C169.012 364.147 188.147 359.645 209.801 348.116C216.676 344.456 222.751 341.282 223.301 341.064C223.851 340.845 227.143 339.374 230.617 337.795C239.836 333.603 248.987 329.958 250.223 329.983C250.816 329.996 253.776 335.058 256.801 341.232C262.138 352.126 274.143 371.34 277.195 373.873C278.023 374.56 277.091 371.987 275.125 368.154C272.31 362.667 271.439 359.638 271.029 353.901L270.508 346.617L273.904 348.71C278.212 351.365 287.897 355.199 288.577 354.518C288.861 354.235 287.943 351.406 286.538 348.232C280.467 334.522 276.057 314.953 277.307 307.279C277.649 305.179 278.623 301.52 279.472 299.148L281.014 294.835L276.658 291.17C264.651 281.069 256.805 270.119 252.145 256.961L249.843 250.461L249.83 255.961C249.801 267.709 253.372 281.692 258.304 289.145L260.829 292.961L257.065 292.945C254.995 292.937 250.826 292.324 247.801 291.584C224.429 285.868 209.624 271.273 204.302 248.703C197.727 220.814 215.329 198.775 244.301 198.621C262.095 198.526 281.102 207.351 304.694 226.661L308.087 229.438L307.351 226.95C305.136 219.464 303.351 217.54 294.373 212.961C280.503 205.887 272.378 197.488 274.881 192.812C276.443 189.894 284.224 187.785 297.975 186.556L311.301 185.364L307.301 183.608C301.227 180.942 288.784 179.651 274.848 180.242C254.048 181.123 245.963 184.117 222.063 199.789C212.672 205.947 202.359 212.218 199.145 213.723C193.442 216.395 192.841 216.463 174.301 216.537C162.358 216.584 153.444 217.089 150.301 217.895C142.174 219.979 127.375 227.57 120.848 233.001C116.941 236.253 114.633 237.593 114.379 236.758C113.081 232.502 107.79 186.028 107.795 178.923C107.806 163.973 111.807 136.527 116.768 117.371C121.263 100.017 121.52 99.5843 128.504 97.6243C131.773 96.7073 138.014 95.5123 142.374 94.9673C146.734 94.4233 151.651 93.7153 153.301 93.3933C159.384 92.2083 173.42 87.6823 177.794 85.4963C180.528 84.1303 185.172 82.9873 189.598 82.5913C199.517 81.7043 208.935 77.4673 210.755 73.0723C212.366 69.1833 211.558 60.7663 209.234 57.2183C208.336 55.8483 205.851 53.9923 203.711 53.0943C199.825 51.4633 199.82 51.4553 200.424 46.8223C201.513 38.4733 198.159 32.5953 182.651 15.6803C173.954 6.1943 169.027 2.9813 163.091 2.9263C161.006 2.9063 158.176 2.2473 156.801 1.4613C152.5 -0.997697 147.719 -0.365697 141.755 3.4513ZM154.709 4.5663C156.203 5.4483 158.288 7.4543 159.343 9.0243C161.255 11.8683 161.268 11.8713 163.345 9.9193C167.115 6.3783 169.784 7.3803 177.433 15.2113C181.328 19.1993 186.832 25.3003 189.664 28.7703L194.813 35.0803L191.785 37.6283C190.119 39.0303 188.282 41.0623 187.703 42.1453C186.738 43.9473 186.835 44.0133 188.855 42.9323C191.007 41.7803 191.021 41.8083 189.431 44.0793C186.841 47.7763 187.512 48.2293 191.533 45.4973C193.586 44.1023 195.856 42.9613 196.578 42.9613C200.372 42.9613 191.336 63.5283 185.16 68.9503C179.607 73.8263 178.478 72.7403 182.374 66.2703C184.259 63.1403 185.801 59.3313 185.801 57.8073C185.801 54.0543 182.551 46.0723 177.692 37.8943C175.481 34.1733 172.764 28.7283 171.653 25.7953C169.64 20.4773 167.249 16.9613 165.646 16.9613C163.897 16.9613 165.026 19.4423 173.301 33.7903C181.556 48.1033 182.815 50.9613 180.866 50.9613C180.352 50.9613 178.68 51.4373 177.15 52.0183C175.132 52.7863 174.73 53.2993 175.687 53.8903C176.718 54.5283 176.589 55.0053 175.092 56.0833C174.039 56.8413 172.819 58.0613 172.38 58.7943C171.756 59.8343 172.208 59.8063 174.441 58.6643C176.014 57.8603 178.764 56.8873 180.551 56.5023C183.62 55.8413 183.801 55.9613 183.801 58.6453C183.801 64.1873 173.04 77.2603 166.522 79.6353C163.094 80.8843 158.801 81.3203 158.801 80.4183C158.801 80.1193 160.713 77.3413 163.051 74.2443C168.855 66.5553 168.731 63.2413 162.05 47.4613C159.256 40.8613 156.663 33.8863 156.287 31.9613C155.406 27.4453 153.178 23.9613 151.171 23.9613C150.285 23.9613 149.823 24.5123 150.122 25.2113C150.416 25.8993 153.839 33.5193 157.729 42.1463C165.285 58.9043 166.332 62.8513 162.708 60.9113C161.491 60.2603 159.502 60.1043 157.958 60.5383L155.301 61.2853L158.301 62.0053L161.301 62.7243L158.301 62.8783C156.651 62.9633 154.176 63.6593 152.801 64.4263C150.405 65.7623 150.472 65.7983 154.407 65.2783C163.829 64.0343 165.492 69.4203 158.244 77.7053C152.875 83.8433 147.86 85.7963 142.236 83.9403C140.347 83.3163 138.801 82.5913 138.801 82.3293C138.801 82.0663 140.601 78.8673 142.801 75.2193C147.641 67.1953 147.801 64.3023 143.942 54.6283C142.37 50.6863 140.759 45.2653 140.362 42.5813C139.507 36.8033 138.037 33.2653 136.198 32.5603C133.538 31.5393 133.935 33.8823 138.232 44.5723C140.64 50.5613 142.402 55.7983 142.147 56.2113C141.892 56.6233 140.697 56.9683 139.492 56.9763C138.287 56.9853 136.626 57.4283 135.801 57.9613C134.588 58.7453 134.732 58.9333 136.551 58.9463C137.789 58.9543 138.801 59.4113 138.801 59.9613C138.801 60.5113 137.928 60.9613 136.86 60.9613C135.792 60.9613 134.656 61.3873 134.334 61.9083C134.002 62.4453 136.03 62.9863 139.025 63.1583C143.983 63.4433 144.32 63.6313 144.624 66.2793C145.029 69.8123 137.697 81.4933 134.56 82.3143C131.746 83.0503 126.404 80.4573 124.885 77.6173C123.484 74.9993 123.232 70.7693 124.213 66.3383C124.733 63.9873 124.521 63.0673 123.353 62.6193C122.499 62.2923 121.801 60.9603 121.801 59.6593C121.801 57.6973 121.289 57.2943 118.793 57.2943C117.015 57.2943 114.766 56.3373 113.293 54.9533C110.295 52.1373 110.087 53.2783 112.79 57.7113L114.772 60.9613H111.436C109.601 60.9613 106.659 60.4593 104.899 59.8453C103.139 59.2323 101.427 59.0013 101.095 59.3333C100.153 60.2763 108.784 63.7203 114.006 64.4853C117.358 64.9763 119.152 65.8473 120.244 67.5143C121.642 69.6483 121.601 70.2633 119.775 74.5223C117.054 80.8693 114.123 84.7943 110.412 87.0563C106.6 89.3813 109.151 89.6773 114.333 87.5123C118.156 85.9153 118.654 86.3613 116.146 89.1323C112.954 92.6593 117.481 91.2453 121.761 87.3783L125.726 83.7963L128.264 86.3333C130.583 88.6523 130.801 88.7023 130.801 86.9163C130.801 84.3213 132.322 84.4393 134.244 87.1843L135.801 89.4063V86.8503C135.801 83.3093 136.636 82.8073 139.454 84.6533C141.354 85.8983 143.545 86.1243 149.59 85.6983C158.713 85.0553 167.162 82.0953 173.344 77.3763C178.518 73.4273 179.355 73.2603 180.766 75.8953C182.229 78.6283 182.209 78.6673 178.051 81.3713C169.337 87.0383 146.904 92.0463 121.301 94.0393C110.452 94.8843 106.462 94.7653 100.301 93.4173C99.2013 93.1763 100.101 93.8633 102.301 94.9443C104.501 96.0243 107.201 96.9523 108.301 97.0053L110.301 97.1023L108.301 97.9593C105.828 99.0193 100.288 98.1943 96.3013 96.1733C93.4933 94.7493 93.3923 94.7613 94.7193 96.3613C96.9553 99.0563 99.8123 100.258 106.801 101.442L113.301 102.543L113.146 109.002C112.989 115.549 108.299 137.607 100.519 168.386L96.2413 185.311L88.1883 189.386C72.1473 197.503 62.7143 207.193 54.0433 224.461C48.7493 235.004 44.2183 252.365 49.0963 243.416C53.6843 235 59.8963 227.07 67.3693 220.091C71.6203 216.121 76.0333 212.372 77.1753 211.761C79.2033 210.676 79.2113 210.706 77.5343 213.055C74.2383 217.673 70.8943 223.491 69.2553 227.461L67.6043 231.461L72.4423 226.656C77.7433 221.391 87.3583 216.224 92.7223 215.758C96.0273 215.471 96.2233 215.656 98.4583 221.175C103.664 234.032 103.584 247.519 98.2393 258.099C95.0833 264.348 80.0163 282.784 72.6643 289.394C68.3633 293.261 66.9503 293.962 63.4433 293.965C56.6133 293.971 50.3513 299.359 51.9533 303.849C52.5483 305.514 69.5783 294.714 75.4573 288.944C78.5293 285.928 88.7983 274.011 98.2783 262.461C107.757 250.911 117.479 239.886 119.883 237.961C128.216 231.286 132.195 228.672 138.731 225.574C144.66 222.765 146.228 222.462 154.801 222.474C165.834 222.489 169.983 224.133 176.853 231.214C187.832 242.531 193.058 264.829 187.327 275.911C184.764 280.867 176.238 289.571 169.36 294.252C155.933 303.39 128.215 314.542 106.459 319.561C96.1763 321.933 98.7813 323.062 112.801 322.31C134.233 321.161 155.139 316.326 169.153 309.279C172.922 307.383 176.215 306.041 176.47 306.296C177.488 307.314 162.762 320.694 156.754 324.211C149.157 328.657 150.694 328.922 163.766 325.42C176.091 322.118 190.494 315.236 199.478 308.357C210.105 300.219 215.397 298.672 230.794 299.206C240.377 299.538 245.235 300.228 251.574 302.157C256.125 303.542 260.108 304.935 260.426 305.253C261.133 305.96 258.216 315.088 255.65 320.198C253.583 324.315 251.21 325.762 237.296 331.39C220.879 338.03 204.914 340.959 185.109 340.965C162.114 340.971 125.438 343.936 105.078 347.434C97.5763 348.723 97.9383 348.752 115.301 348.242C134.276 347.685 148.023 348.795 156.055 351.532C162.435 353.706 163.643 355.364 160.396 357.491C155.319 360.818 145.128 361.229 92.8013 360.222C31.1873 359.036 36.2583 360.124 15.8013 343.714C7.06326 336.704 3.80127 332.412 3.80127 327.922C3.80127 324.633 9.26327 315.961 11.3353 315.961C13.6893 315.961 22.4683 325.584 26.3723 332.443C29.4493 337.848 29.7323 338.105 29.1553 334.961C28.2123 329.83 24.1723 318.677 19.6773 308.798C17.5093 304.034 14.6633 295.389 13.3523 289.588C10.6673 277.704 8.29826 251.818 9.04426 242.519C9.90826 231.763 18.6343 208.345 36.9553 167.618C50.1563 138.274 52.3403 132.734 60.4793 107.961C69.0483 81.8793 75.9863 66.7533 84.6183 55.3373C92.8363 44.4683 109.474 27.7763 116.565 23.2873C119.72 21.2903 124.187 17.9393 126.492 15.8423C131.993 10.8373 134.512 10.2973 140.339 12.8753C146.516 15.6073 146.828 15.5403 145.731 11.7183C144.485 7.3733 144.503 7.2593 146.801 4.9613C149.22 2.5423 151.122 2.4473 154.709 4.5663ZM190.107 49.4293C188.564 50.7873 187.785 51.9123 188.377 51.9293C188.968 51.9473 190.509 50.8363 191.801 49.4613C194.82 46.2473 193.747 46.2273 190.107 49.4293ZM172.372 51.5323C170.049 53.8563 170.462 54.2293 173.301 52.3693C174.676 51.4683 175.801 50.5583 175.801 50.3463C175.801 49.4083 173.807 50.0983 172.372 51.5323ZM153.801 58.9613C151.973 60.1423 153.552 60.1423 156.301 58.9613C157.62 58.3943 157.79 58.0833 156.801 58.0473C155.976 58.0163 154.626 58.4283 153.801 58.9613ZM201.346 62.4163C204.216 65.2853 204.533 69.4163 202.156 72.9883L200.512 75.4613L202.758 73.3323C203.993 72.1603 205.323 69.6853 205.712 67.8323C206.393 64.5843 206.462 64.5413 207.61 66.6463C209.414 69.9543 207.636 73.1923 202.665 75.6523C193.869 80.0033 187 79.8893 184.935 75.3563C183.392 71.9703 184.369 70.8993 186.381 73.7713C188.557 76.8783 189.825 76.4853 188.547 73.0993C187.639 70.6933 187.827 69.6553 189.732 66.5733C194.272 59.2273 197.133 58.2033 201.346 62.4163ZM171.829 70.8603C166.729 77.0123 166.958 77.4753 172.646 72.5083C174.884 70.5553 178.307 65.0603 177.625 64.5173C177.447 64.3763 174.839 67.2303 171.829 70.8603ZM139.07 65.6543C140.043 65.9083 141.393 65.8913 142.07 65.6173C142.747 65.3433 141.951 65.1363 140.301 65.1563C138.651 65.1763 138.097 65.4003 139.07 65.6543ZM137.49 74.6573C134.56 78.7763 134.857 80.8623 137.816 76.9463C139.45 74.7843 141.079 70.9613 140.367 70.9613C140.231 70.9613 138.937 72.6243 137.49 74.6573ZM156.272 74.9933C155.26 76.1113 152.917 77.9623 151.064 79.1073C149.212 80.2523 147.903 81.3963 148.155 81.6493C149.092 82.5863 154.713 78.8933 156.79 75.9763C159.251 72.5203 158.978 72.0033 156.272 74.9933ZM78.8013 76.5223C78.8013 76.8693 79.5793 78.4703 80.5303 80.0793C82.8903 84.0743 88.7203 87.9283 93.4133 88.5943C97.1553 89.1253 97.0753 89.0363 91.2923 86.2103C87.9873 84.5953 83.8243 81.6133 82.0423 79.5833C80.2593 77.5523 78.8013 76.1753 78.8013 76.5223ZM85.2633 113.711C75.2973 124.176 65.2923 145.317 58.4053 170.461C55.1763 182.248 50.5243 204.63 51.0033 206.068C51.2103 206.689 52.7763 202.982 54.4823 197.829C60.0933 180.882 72.1023 150.409 87.2383 114.711C89.1333 110.241 88.7523 110.047 85.2633 113.711ZM68.3053 121.089C63.3733 126.548 60.6883 132.872 60.1303 140.348L59.6733 146.461L62.0723 139.961C64.7733 132.644 69.0953 123.825 71.9973 119.711C74.9533 115.522 72.5113 116.432 68.3053 121.089ZM93.7693 157.453L88.3013 167.843L87.8013 161.211L87.3013 154.579L83.6683 160.52C77.4563 170.678 67.8013 191.396 67.8013 194.569C67.8013 194.878 69.9393 193.246 72.5513 190.941C75.1633 188.637 80.4813 185.003 84.3683 182.866L91.4363 178.981L95.6953 163.381C98.0383 154.802 99.7943 147.62 99.5963 147.423C99.3993 147.225 96.7773 151.739 93.7693 157.453ZM216.676 221.644C215.115 226.145 214.887 239.769 216.278 245.461C217.094 248.798 217.35 246.89 217.824 233.961C218.137 225.436 218.304 218.318 218.196 218.144C218.089 217.97 217.405 219.545 216.676 221.644ZM208.536 230.461C207.427 236.683 207.665 242.017 209.343 248.501C210.864 254.375 216.453 264.961 218.035 264.961C218.482 264.961 218.191 263.949 217.389 262.711C214.354 258.029 210.703 244.694 209.983 235.658C209.347 227.687 209.154 226.994 208.536 230.461ZM16.4573 268.187C17.6103 283.596 23.0233 304.003 28.3353 312.961L29.8173 315.461L29.3113 312.961C25.3413 293.339 23.2443 283.878 21.1083 275.961C19.6983 270.736 18.3243 265.442 18.0543 264.196C16.9263 259 15.9523 261.434 16.4573 268.187ZM126.801 301.916C120.476 304.503 111.476 307.709 106.801 309.04C96.1703 312.068 99.5283 312.813 111.254 310.028C119.397 308.095 133.901 301.946 138.301 298.562C141.37 296.203 139.284 296.811 126.801 301.916Z" fill="black"/>
</svg>
